<svg width="80" height="40" viewBox="0 0 109 64" fill="none" xmlns="http://www.w3.org/2000/svg">
<g clip-path="url(#clip0_5016_21019)">
<path d="M1.6067 56.8603C1.6067 57.5942 0.5 57.5942 0.5 56.8603C0.5 56.1264 1.6067 56.1361 1.6067 56.8603ZM1.48263 63.8736H0.614144V58.644H1.48263V63.8736Z" fill="#4C485B"/>
<path d="M10.6797 61.2294C10.6797 57.5648 16.3571 57.5648 16.3571 61.2294C16.3571 64.8941 10.6797 64.8941 10.6797 61.2294ZM15.4837 61.2294C15.4837 58.5466 11.5631 58.5466 11.5631 61.2294C11.5631 63.9123 15.4837 63.922 15.4837 61.2294Z" fill="#4C485B"/>
<path d="M29.6878 63.8735V60.7434C29.6878 59.7908 29.0625 59.2027 28.1791 59.2027C27.2958 59.2027 26.5712 59.8249 26.5712 60.7143V63.8783H25.6977V60.1116C25.6977 59.402 25.6431 59.2125 25.0724 59.2708L25.0625 58.5904C25.6878 58.5029 26.5166 58.3716 26.5166 59.3874C26.998 58.6778 27.658 58.4883 28.4173 58.4883C29.8367 58.4883 30.5761 59.4506 30.5761 60.7434V63.8735H29.6928H29.6878Z" fill="#4C485B"/>
<path d="M41.3686 58.6242H43.3487V59.2463H41.3686V61.8271C41.3686 63.1734 42.2172 63.5574 43.5125 63.0859L43.6117 63.7761C41.7656 64.3545 40.4951 63.8441 40.4951 61.8514V59.2463L39.3438 59.1929V58.6242H40.5497L40.639 56.9814H41.3636V58.6242H41.3686Z" fill="#4C485B"/>
<path d="M55.0655 58.4248C55.537 58.4248 55.9588 58.556 56.3261 58.8185L56.1127 59.5426C55.7653 59.3239 55.3881 59.1927 54.9712 59.1927C54.202 59.1927 53.4874 59.7614 53.4874 60.5925V63.8731H52.6288V59.8343C52.6288 59.3531 52.6189 59.0566 51.9787 59.1101L51.9688 58.5414C52.8075 58.4005 53.398 58.488 53.4328 59.2948C53.7355 58.6484 54.3509 58.4199 55.0655 58.4199V58.4248Z" fill="#4C485B"/>
<path d="M66.5345 63.9609C65.5419 63.9609 64.6685 63.3922 64.6337 62.3278C64.599 61.1225 65.5717 60.5004 66.6883 60.5004C67.3037 60.5004 68.0084 60.6413 68.5444 60.9378V60.2914C68.5444 59.4068 67.5816 59.1638 66.8471 59.1638C66.2317 59.1638 65.661 59.2853 65.2044 59.5478L65.0605 58.8673C65.5866 58.6049 66.2665 58.4736 66.9811 58.4736C68.197 58.4736 69.3732 58.9354 69.3384 60.3108V62.5125C69.3384 63.0909 69.3037 63.4311 69.9637 63.3436L69.9737 63.9026C69.0804 64.0435 68.6536 63.8831 68.6536 62.9159C68.2615 63.6498 67.3484 63.956 66.5295 63.956L66.5345 63.9609ZM68.5345 61.5842C68.0431 61.312 67.3831 61.1565 66.8372 61.1565C66.1226 61.1565 65.4625 61.5405 65.4972 62.2938C65.532 62.9597 66.0878 63.2221 66.6933 63.2221C67.398 63.2221 68.3608 62.8722 68.5345 62.0848V61.5793V61.5842Z" fill="#4C485B"/>
<path d="M80.6467 63.9172L78.0859 58.6973V58.6001H79.0338L79.9519 60.5831L80.8452 62.6293L81.7385 60.5491L82.6219 58.6001H83.5599V58.6973L81.014 63.9172H80.6467Z" fill="#4C485B"/>
<path d="M97.0799 61.3266H92.802C92.7474 62.5417 93.73 63.2853 94.9459 63.2853C95.5613 63.2853 96.1419 63.1541 96.7672 62.9014L96.9012 63.5478C96.266 63.8443 95.5811 63.9949 94.9211 63.9949C93.1345 63.9949 91.869 62.8916 91.9236 61.0933C91.9782 59.4311 93.2089 58.4785 94.6829 58.4785C96.5141 58.4882 97.3777 59.5818 97.0749 61.3218L97.0799 61.3266ZM92.8318 60.6705H96.3404C96.395 59.6741 95.6457 59.159 94.6878 59.159C93.73 59.159 92.9757 59.7179 92.8318 60.6705Z" fill="#4C485B"/>
<path d="M107.113 55.854V61.9731C107.113 63.0035 107.336 63.3631 108.468 63.2222L108.502 63.9026C106.86 64.1651 106.234 63.6061 106.234 61.9779V55.8589H107.118L107.113 55.854Z" fill="#4C485B"/>
<path d="M73.8506 0.170161C73.8506 0.170161 70.2774 0.656188 66.7141 2.16773C63.4288 3.56263 60.5206 4.81172 60.5206 4.81172C60.5206 4.81172 51.2948 -1.97322 42.7489 2.10941C34.198 6.19689 35.3245 17.7303 35.3245 17.7303C35.3245 17.7303 29.7116 24.9527 15.3047 21.5748C15.3047 21.5748 18.0491 33.8421 34.734 33.8421C51.4188 33.8421 53.6025 19.5772 58.8431 13.4436C59.3146 12.8943 59.8208 12.3354 60.3568 11.7716C60.7191 13.3123 60.8779 14.8093 60.7439 16.0292C60.729 16.175 60.7042 16.316 60.6843 16.4618C60.7786 16.977 60.9523 17.3755 61.3593 17.9296C63.0714 20.2576 63.9796 20.0973 62.9523 21.0401C61.925 21.983 61.2352 22.1629 61.2352 22.1629C61.2352 22.1629 61.1558 22.542 61.3444 22.9065C61.533 23.271 62.4015 23.8056 62.0392 24.2819C61.6819 24.7583 60.6496 25.0596 60.6496 25.0596C60.6496 25.0596 61.6223 25.6428 61.5429 26.3524C61.4635 27.062 59.9945 26.4982 59.8357 27.9223C59.7811 28.3986 60.7588 29.7498 60.1285 30.5177C59.6422 31.1155 59.2551 31.4265 57.0069 31.514C55.7662 31.5626 53.3245 31.1398 52.0491 34.1775C51.9101 35.9369 52.8283 37.5699 52.8283 37.5699C52.8283 37.5699 58.6149 32.2382 65.6273 38.8385C72.6397 45.4387 79.8159 43.4314 79.8159 43.4314C82.9424 42.9114 84.858 41.7109 84.858 41.7109C84.858 41.7109 83.2402 42.0171 79.3593 40.8117C75.4834 39.6064 72.9275 36.6367 72.9275 36.6367C72.9275 36.6367 77.1459 37.9053 82.1533 37.0742C97.9449 34.4545 101.196 20.7728 101.196 20.7728C101.196 20.7728 92.7538 24.8166 82.5206 23.1835C72.5454 21.5942 65.4982 15.1738 62.0938 10.0219C68.5801 17.3415 73.8456 17.3463 73.8456 17.3463C73.8456 17.3463 76.0888 15.9466 79.3692 9.67684C83.1062 2.53225 79.4089 0.554122 77.5776 0.170161C75.7464 -0.2138 73.8456 0.170161 73.8456 0.170161" fill="#4C485B"/>
<path d="M101.2 20.7726C101.2 20.7726 92.7581 24.8163 82.5248 23.1833C72.2916 21.5502 65.1353 14.8333 61.835 9.62313C58.5348 4.41293 55.9988 3.43115 55.9988 3.43115C58.6588 5.49191 61.17 12.1456 60.7482 16.0192C60.7333 16.1651 60.7085 16.306 60.6886 16.4518C60.7829 16.967 60.9566 17.3655 61.3636 17.9196C63.0757 20.2477 63.9839 20.0873 62.9566 21.0302C61.9293 21.9731 61.2395 22.1529 61.2395 22.1529C61.2395 22.1529 61.1601 22.532 61.3487 22.8965C61.5373 23.261 62.4057 23.7957 62.0435 24.272C61.6861 24.7483 60.6539 25.0496 60.6539 25.0496C60.6539 25.0496 61.6266 25.6329 61.5472 26.3425C61.4678 27.0521 59.9988 26.4883 59.84 27.9123C59.7854 28.3886 60.7631 29.7398 60.1328 30.5077C59.6464 31.1055 59.2593 31.4166 57.0112 31.5041C55.7705 31.5527 53.3288 31.1298 52.0534 34.1675C51.9144 35.9269 52.8325 37.56 52.8325 37.56C52.8325 37.56 58.6191 32.2282 65.6315 38.8285C72.644 45.4287 79.8201 43.4214 79.8201 43.4214C82.9467 42.9014 84.8623 41.7009 84.8623 41.7009C84.8623 41.7009 83.2444 42.0071 79.3636 40.8017C75.4876 39.5964 72.9318 36.6268 72.9318 36.6268C72.9318 36.6268 77.1502 37.8953 82.1576 37.0642C97.9492 34.4445 101.2 20.7629 101.2 20.7629V20.7726Z" fill="#4C485B"/>
<path d="M15.3047 21.5745C15.3047 21.5745 18.0491 33.8419 34.734 33.8419C51.4188 33.8419 53.6025 19.577 58.8432 13.4433C64.0888 7.30479 73.8506 0.169922 73.8506 0.169922C73.8506 0.169922 69.9201 0.597625 66.7141 2.16749C63.5082 3.73736 60.5206 4.81148 60.5206 4.81148C60.5206 4.81148 51.2948 -1.97346 42.7489 2.10917C34.198 6.19665 35.3245 17.7301 35.3245 17.7301C35.3245 17.7301 29.7116 24.9524 15.3047 21.5745Z" fill="#F6D357"/>
<path d="M62.0938 10.0219C62.0938 10.0219 65.4287 6.83847 68.1186 4.67079C70.8084 2.50311 73.8555 0.175044 73.8555 0.175044C73.8555 0.175044 75.7612 -0.208917 77.5875 0.175044C79.4138 0.559005 83.1161 2.53713 79.3791 9.68173C76.0987 15.9515 73.8555 17.3512 73.8555 17.3512C73.8555 17.3512 68.5851 17.3512 62.0987 10.0219H62.0938Z" fill="#E8A603"/>
</g>
<defs>
<clipPath id="clip0_5016_21019">
<rect width="108" height="64" fill="white" transform="translate(0.5)"/>
</clipPath>
</defs>
</svg>
