<svg width="86" height="44" viewBox="0 0 86 44" fill="none" xmlns="http://www.w3.org/2000/svg">
<path d="M85.8951 20.7682C85.8951 20.7682 77.4534 24.8119 67.2202 23.1789C56.9869 21.5458 49.8306 14.8289 46.5303 9.61874C43.2301 4.40853 40.6941 3.42676 40.6941 3.42676C43.3542 5.48751 45.8653 12.1412 45.4435 16.0149C45.4286 16.1607 45.4038 16.3016 45.3839 16.4474C45.4782 16.9626 45.6519 17.3611 46.0589 17.9152C47.771 20.2433 48.6792 20.0829 47.6519 21.0258C46.6246 21.9687 45.9348 22.1485 45.9348 22.1485C45.9348 22.1485 45.8554 22.5276 46.044 22.8921C46.2326 23.2566 47.1011 23.7913 46.7388 24.2676C46.3814 24.7439 45.3492 25.0452 45.3492 25.0452C45.3492 25.0452 46.3219 25.6285 46.2425 26.3381C46.1631 27.0477 44.6941 26.4839 44.5353 27.9079C44.4807 28.3842 45.4584 29.7354 44.8281 30.5033C44.3417 31.1011 43.9546 31.4122 41.7065 31.4997C40.4658 31.5483 38.0241 31.1254 36.7487 34.1631C36.6097 35.9225 37.5279 37.5556 37.5279 37.5556C37.5279 37.5556 43.3145 32.2238 50.3269 38.8241C57.3393 45.4243 64.5154 43.417 64.5154 43.417C67.642 42.897 69.5576 41.6965 69.5576 41.6965C69.5576 41.6965 67.9398 42.0027 64.0589 40.7974C60.1829 39.592 57.6271 36.6224 57.6271 36.6224C57.6271 36.6224 61.8455 37.8909 66.8529 37.0598C82.6445 34.4401 85.8951 20.7585 85.8951 20.7585V20.7682Z" fill="#4C485B"/>
<path d="M0 21.5701C0 21.5701 2.74442 33.8375 19.4293 33.8375C36.1141 33.8375 38.2978 19.5726 43.5385 13.4389C48.7841 7.3004 58.5459 0.165527 58.5459 0.165527C58.5459 0.165527 54.6154 0.593231 51.4094 2.1631C48.2035 3.73296 45.2159 4.80708 45.2159 4.80708C45.2159 4.80708 35.9901 -1.97785 27.4442 2.10477C18.8933 6.19226 20.0199 17.7257 20.0199 17.7257C20.0199 17.7257 14.4069 24.948 0 21.5701Z" fill="#F6D357"/>
<path d="M46.7891 10.0176C46.7891 10.0176 50.124 6.83408 52.8139 4.6664C55.5037 2.49872 58.5509 0.170649 58.5509 0.170649C58.5509 0.170649 60.4566 -0.213312 62.2829 0.170649C64.1092 0.554611 67.8114 2.53274 64.0744 9.67733C60.794 15.9471 58.5509 17.3468 58.5509 17.3468C58.5509 17.3468 53.2804 17.3468 46.794 10.0176H46.7891Z" fill="#E8A603"/>
</svg>

