<svg width="41" height="44" viewBox="0 0 41 44" fill="none" xmlns="http://www.w3.org/2000/svg">
<path d="M18.999 3.63071C19.9048 3.11268 21.0224 3.11268 21.9282 3.63071L35.7996 11.5638C36.7007 12.0791 37.2553 13.0287 37.2553 14.0562V29.9427C37.2553 30.9702 36.7007 31.9198 35.7996 32.4351L21.9282 40.3682C21.0224 40.8862 19.9048 40.8862 18.999 40.3682L5.12756 32.4351C4.22653 31.9198 3.67188 30.9702 3.67188 29.9427V14.0562C3.67188 13.0287 4.22653 12.0791 5.12756 11.5638L18.999 3.63071Z" stroke="#FF7A11" stroke-width="5"/>
<path d="M14.8672 31.6031V14.3174H23.1073C24.4417 14.3174 25.5421 14.5947 26.4085 15.1495C27.275 15.6863 27.9162 16.4199 28.3321 17.3504C28.7653 18.2809 28.982 19.3277 28.982 20.4908C28.982 21.6719 28.7393 22.7187 28.2541 23.6313C27.7689 24.5439 27.0757 25.2596 26.1746 25.7786C25.2908 26.2796 24.2337 26.5301 23.0033 26.5301H19.0522V31.6031H14.8672ZM19.0522 23.2018H22.0675C22.9514 23.2018 23.6099 22.9513 24.0431 22.4503C24.4937 21.9492 24.719 21.2871 24.719 20.464C24.719 19.5693 24.511 18.8804 24.0951 18.3972C23.6965 17.8962 23.064 17.6457 22.1975 17.6457H19.0522V23.2018Z" fill="#FF7A11"/>
</svg>
